<svg xmlns="http://www.w3.org/2000/svg" xmlns:xlink="http://www.w3.org/1999/xlink" width="500" zoomAndPan="magnify" viewBox="0 0 375 374.999991" height="500" preserveAspectRatio="xMidYMid meet" version="1.0"><defs><g/></defs><g fill="#ffffff" fill-opacity="1"><g transform="translate(64.128919, 211.683801)"><g><path d="M 12.171875 -13.75 L 38.796875 -15.3125 L 38.5 -40.234375 L 1.15625 -38.09375 L 2.78125 0 L 13.21875 -0.234375 Z M 28.296875 -23.1875 L 11.9375 -22.5 L 11.25 -31.25 L 27.828125 -31.953125 Z M 28.296875 -23.1875 "/></g></g></g><g fill="#ffffff" fill-opacity="1"><g transform="translate(104.072946, 211.683801)"><g><path d="M 13.046875 -12.125 L 13.515625 -7.53125 L 30.03125 -7.53125 L 31.015625 -0.234375 L 2.90625 0 L 1.15625 -30.671875 L 29.921875 -31.203125 L 31.3125 -12.8125 Z M 12.125 -18.671875 L 22.265625 -19.25 L 21.75 -24.765625 L 11.484375 -24.53125 Z M 12.125 -18.671875 "/></g></g></g><g fill="#ffffff" fill-opacity="1"><g transform="translate(136.538351, 211.683801)"><g><path d="M 25.390625 -0.0625 L 24.765625 -22.5 L 13.796875 -22.734375 L 14.734375 0 L 1.796875 0.234375 L 1.15625 -30.609375 L 37.40625 -30.96875 L 38.09375 -0.296875 Z M 25.390625 -0.0625 "/></g></g></g><g fill="#ffffff" fill-opacity="1"><g transform="translate(175.786692, 211.683801)"><g><path d="M 22.84375 -23.828125 L 1.21875 -22.671875 L 1.390625 0 L 37.6875 -0.171875 L 37.984375 -9.15625 L 14.609375 -8.8125 L 14.734375 -14.78125 L 37.578125 -15.484375 L 38.21875 -38.390625 L 1.15625 -38.15625 L 1.6875 -28 L 22.671875 -28.640625 Z M 22.84375 -23.828125 "/></g></g></g><g fill="#ffffff" fill-opacity="1"><g transform="translate(215.150987, 211.683801)"><g><path d="M 12.171875 -13.75 L 38.796875 -15.3125 L 38.5 -40.234375 L 1.15625 -38.09375 L 2.78125 0 L 13.21875 -0.234375 Z M 28.296875 -23.1875 L 11.9375 -22.5 L 11.25 -31.25 L 27.828125 -31.953125 Z M 28.296875 -23.1875 "/></g></g></g><g fill="#ffffff" fill-opacity="1"><g transform="translate(255.095015, 211.683801)"><g><path d="M 22.375 -25.21875 L 1.5 -25.21875 L 1.15625 0 L 32.640625 -0.296875 L 32.703125 -42.625 L 22.265625 -42.625 Z M 11.53125 -16.703125 L 22.09375 -16.53125 L 21.75 -7.765625 L 11.421875 -7.890625 Z M 11.53125 -16.703125 "/></g></g></g><g fill="#ffffff" fill-opacity="1"><g transform="translate(288.95179, 211.683801)"><g><path d="M 1.15625 -39.203125 L 1.390625 0 L 10.375 -0.171875 L 10.375 -16.8125 L 17.796875 -17.109375 L 17.046875 -24.703125 L 9.28125 -24.703125 L 9.28125 -31.140625 L 20.765625 -31.140625 L 20.46875 -39.03125 Z M 1.15625 -39.203125 "/></g></g></g></svg>